<mxfile host="app.diagrams.net" modified="2024-04-01T14:39:36.954Z" agent="Mozilla/5.0 (Windows NT 10.0; Win64; x64; rv:109.0) Gecko/20100101 Firefox/116.0" etag="GiM_pnt49kevuv6c_8Y5" version="24.2.1" type="github">
  <diagram name="Page-1" id="9A1bHTO3gvdUHO-Hka54">
    <mxGraphModel dx="1434" dy="737" grid="1" gridSize="10" guides="1" tooltips="1" connect="1" arrows="1" fold="1" page="1" pageScale="1" pageWidth="850" pageHeight="1100" background="#0097ED" math="0" shadow="0">
      <root>
        <mxCell id="0" />
        <mxCell id="1" parent="0" />
        <mxCell id="ut_Y9sSOxCHwD-0WXniP-1" value="&lt;div&gt;&lt;span style=&quot;font-size: 14px&quot;&gt;&lt;b&gt;Programming Exercise&lt;/b&gt;&lt;/span&gt;&lt;/div&gt;&lt;div&gt;&lt;span style=&quot;font-size: 14px&quot;&gt;&lt;b&gt;Ch. 6, Lab 6 p1: 4.1&lt;br&gt;RectangleArea&lt;br&gt;&lt;/b&gt;&lt;/span&gt;&lt;/div&gt;&lt;div&gt;&lt;span style=&quot;font-size: 14px&quot;&gt;&lt;/span&gt;&lt;/div&gt;&lt;span style=&quot;font-size: 14px&quot;&gt;&lt;b&gt;Tristen Stegall&lt;br&gt;April 1, 2024&lt;br&gt;&lt;/b&gt;&lt;/span&gt;" style="rounded=0;whiteSpace=wrap;html=1;strokeWidth=3;fillColor=#FFFFFF;strokeColor=#000000;fontColor=#000000;fillStyle=auto;" vertex="1" parent="1">
          <mxGeometry x="41.25" y="40" width="215" height="100" as="geometry" />
        </mxCell>
        <mxCell id="ut_Y9sSOxCHwD-0WXniP-7" style="edgeStyle=orthogonalEdgeStyle;rounded=0;orthogonalLoop=1;jettySize=auto;html=1;entryX=0.5;entryY=0;entryDx=0;entryDy=0;" edge="1" parent="1" source="ut_Y9sSOxCHwD-0WXniP-2" target="ut_Y9sSOxCHwD-0WXniP-3">
          <mxGeometry relative="1" as="geometry" />
        </mxCell>
        <mxCell id="ut_Y9sSOxCHwD-0WXniP-2" value="&lt;font style=&quot;font-size: 14px&quot;&gt;&lt;b&gt;Start&lt;/b&gt;&lt;/font&gt;" style="strokeWidth=3;html=1;shape=mxgraph.flowchart.terminator;whiteSpace=wrap;shadow=1;strokeColor=#000000;fontColor=#000000;fillColor=#FFFFFF;" vertex="1" parent="1">
          <mxGeometry x="88.75" y="180" width="120" height="60" as="geometry" />
        </mxCell>
        <mxCell id="ut_Y9sSOxCHwD-0WXniP-8" style="edgeStyle=orthogonalEdgeStyle;rounded=0;orthogonalLoop=1;jettySize=auto;html=1;entryX=0.5;entryY=0;entryDx=0;entryDy=0;" edge="1" parent="1" source="ut_Y9sSOxCHwD-0WXniP-3" target="ut_Y9sSOxCHwD-0WXniP-4">
          <mxGeometry relative="1" as="geometry" />
        </mxCell>
        <mxCell id="ut_Y9sSOxCHwD-0WXniP-3" value="&lt;div&gt;&lt;span style=&quot;font-size: 14px&quot;&gt;&lt;b&gt;Declare Real width, length, area&lt;br&gt;&lt;/b&gt;&lt;/span&gt;&lt;/div&gt;" style="rounded=0;whiteSpace=wrap;html=1;strokeWidth=3;strokeColor=#000000;fontColor=#000000;fillColor=#FFFFFF;" vertex="1" parent="1">
          <mxGeometry x="39.379999999999995" y="280" width="218.75" height="100" as="geometry" />
        </mxCell>
        <mxCell id="ut_Y9sSOxCHwD-0WXniP-9" style="edgeStyle=orthogonalEdgeStyle;rounded=0;orthogonalLoop=1;jettySize=auto;html=1;entryX=0.5;entryY=0;entryDx=0;entryDy=0;" edge="1" parent="1" source="ut_Y9sSOxCHwD-0WXniP-4" target="ut_Y9sSOxCHwD-0WXniP-6">
          <mxGeometry relative="1" as="geometry" />
        </mxCell>
        <mxCell id="ut_Y9sSOxCHwD-0WXniP-4" value="&lt;div&gt;Set area = Call getRectangleSides&lt;/div&gt;&lt;div&gt;(width, length)&lt;/div&gt;" style="shape=process;whiteSpace=wrap;html=1;backgroundOutline=1;strokeWidth=3;fontStyle=1;fontSize=14;" vertex="1" parent="1">
          <mxGeometry x="39.379999999999995" y="420" width="218.75" height="100" as="geometry" />
        </mxCell>
        <mxCell id="ut_Y9sSOxCHwD-0WXniP-5" value="&lt;font style=&quot;font-size: 14px&quot;&gt;&lt;b&gt;End&lt;/b&gt;&lt;/font&gt;" style="strokeWidth=3;html=1;shape=mxgraph.flowchart.terminator;whiteSpace=wrap;shadow=1;strokeColor=#000000;fontColor=#000000;fillColor=#FFFFFF;" vertex="1" parent="1">
          <mxGeometry x="88.75" y="710" width="120" height="60" as="geometry" />
        </mxCell>
        <mxCell id="ut_Y9sSOxCHwD-0WXniP-6" value="&lt;div&gt;&lt;font style=&quot;font-size: 14px&quot;&gt;&lt;b&gt;Display&lt;/b&gt;&lt;/font&gt;&lt;/div&gt;&lt;div&gt;&lt;font style=&quot;font-size: 14px&quot;&gt;&lt;b&gt;&quot;The rectangle&#39;s area&lt;/b&gt;&lt;/font&gt;&lt;/div&gt;&lt;div&gt;&lt;font style=&quot;font-size: 14px&quot;&gt;&lt;b&gt;is&quot;, area&lt;br&gt;&lt;/b&gt;&lt;/font&gt;&lt;/div&gt;" style="shape=parallelogram;html=1;strokeWidth=3;perimeter=parallelogramPerimeter;whiteSpace=wrap;rounded=1;arcSize=12;size=0.23;shadow=1;strokeColor=#000000;fontColor=#000000;fillColor=#FFFFFF;" vertex="1" parent="1">
          <mxGeometry x="33.75999999999999" y="560" width="230" height="110" as="geometry" />
        </mxCell>
        <mxCell id="ut_Y9sSOxCHwD-0WXniP-10" style="edgeStyle=orthogonalEdgeStyle;rounded=0;orthogonalLoop=1;jettySize=auto;html=1;entryX=0.5;entryY=0;entryDx=0;entryDy=0;entryPerimeter=0;" edge="1" parent="1" source="ut_Y9sSOxCHwD-0WXniP-6" target="ut_Y9sSOxCHwD-0WXniP-5">
          <mxGeometry relative="1" as="geometry" />
        </mxCell>
        <mxCell id="ut_Y9sSOxCHwD-0WXniP-18" style="edgeStyle=orthogonalEdgeStyle;rounded=0;orthogonalLoop=1;jettySize=auto;html=1;entryX=0.5;entryY=0;entryDx=0;entryDy=0;" edge="1" parent="1" source="ut_Y9sSOxCHwD-0WXniP-11" target="ut_Y9sSOxCHwD-0WXniP-12">
          <mxGeometry relative="1" as="geometry" />
        </mxCell>
        <mxCell id="ut_Y9sSOxCHwD-0WXniP-11" value="&lt;div&gt;getRectangleSides( real width,&amp;nbsp; real length)&lt;/div&gt;" style="shape=process;whiteSpace=wrap;html=1;backgroundOutline=1;strokeWidth=3;fontStyle=1;fontSize=14;" vertex="1" parent="1">
          <mxGeometry x="545.63" y="40" width="218.75" height="100" as="geometry" />
        </mxCell>
        <mxCell id="ut_Y9sSOxCHwD-0WXniP-19" style="edgeStyle=orthogonalEdgeStyle;rounded=0;orthogonalLoop=1;jettySize=auto;html=1;entryX=0.5;entryY=0;entryDx=0;entryDy=0;" edge="1" parent="1" source="ut_Y9sSOxCHwD-0WXniP-12" target="ut_Y9sSOxCHwD-0WXniP-13">
          <mxGeometry relative="1" as="geometry" />
        </mxCell>
        <mxCell id="ut_Y9sSOxCHwD-0WXniP-12" value="&lt;div&gt;&lt;font style=&quot;font-size: 14px&quot;&gt;&lt;b&gt;Display&lt;/b&gt;&lt;/font&gt;&lt;/div&gt;&lt;div&gt;&lt;font style=&quot;font-size: 14px&quot;&gt;&lt;b&gt;&quot;Enter the rectangle&#39;s&lt;/b&gt;&lt;/font&gt;&lt;/div&gt;&lt;div&gt;&lt;font style=&quot;font-size: 14px&quot;&gt;&lt;b&gt;width&quot;&lt;br&gt;&lt;/b&gt;&lt;/font&gt;&lt;/div&gt;" style="shape=parallelogram;html=1;strokeWidth=3;perimeter=parallelogramPerimeter;whiteSpace=wrap;rounded=1;arcSize=12;size=0.23;shadow=1;strokeColor=#000000;fontColor=#000000;fillColor=#FFFFFF;" vertex="1" parent="1">
          <mxGeometry x="540.01" y="180" width="230" height="110" as="geometry" />
        </mxCell>
        <mxCell id="ut_Y9sSOxCHwD-0WXniP-20" style="edgeStyle=orthogonalEdgeStyle;rounded=0;orthogonalLoop=1;jettySize=auto;html=1;entryX=0.5;entryY=0;entryDx=0;entryDy=0;" edge="1" parent="1" source="ut_Y9sSOxCHwD-0WXniP-13" target="ut_Y9sSOxCHwD-0WXniP-14">
          <mxGeometry relative="1" as="geometry" />
        </mxCell>
        <mxCell id="ut_Y9sSOxCHwD-0WXniP-13" value="Input width" style="shape=parallelogram;html=1;strokeWidth=3;perimeter=parallelogramPerimeter;whiteSpace=wrap;rounded=1;arcSize=12;size=0.23;shadow=1;strokeColor=#000000;fontColor=#000000;fillColor=#FFFFFF;fontSize=14;fontStyle=1" vertex="1" parent="1">
          <mxGeometry x="540.01" y="330" width="230" height="110" as="geometry" />
        </mxCell>
        <mxCell id="ut_Y9sSOxCHwD-0WXniP-21" style="edgeStyle=orthogonalEdgeStyle;rounded=0;orthogonalLoop=1;jettySize=auto;html=1;entryX=0.5;entryY=0;entryDx=0;entryDy=0;" edge="1" parent="1" source="ut_Y9sSOxCHwD-0WXniP-14" target="ut_Y9sSOxCHwD-0WXniP-15">
          <mxGeometry relative="1" as="geometry" />
        </mxCell>
        <mxCell id="ut_Y9sSOxCHwD-0WXniP-14" value="&lt;div&gt;&lt;font style=&quot;font-size: 14px&quot;&gt;&lt;span&gt;Display&lt;/span&gt;&lt;/font&gt;&lt;/div&gt;&lt;div&gt;&lt;font style=&quot;font-size: 14px&quot;&gt;&lt;span&gt;&quot;Enter the rectangle&#39;s&lt;/span&gt;&lt;/font&gt;&lt;/div&gt;&lt;div&gt;&lt;font style=&quot;font-size: 14px&quot;&gt;&lt;span&gt;length&quot;&lt;br&gt;&lt;/span&gt;&lt;/font&gt;&lt;/div&gt;" style="shape=parallelogram;html=1;strokeWidth=3;perimeter=parallelogramPerimeter;whiteSpace=wrap;rounded=1;arcSize=12;size=0.23;shadow=1;strokeColor=#000000;fontColor=#000000;fillColor=#FFFFFF;fontSize=14;fontStyle=1" vertex="1" parent="1">
          <mxGeometry x="540" y="480" width="230" height="110" as="geometry" />
        </mxCell>
        <mxCell id="ut_Y9sSOxCHwD-0WXniP-25" style="edgeStyle=orthogonalEdgeStyle;rounded=0;orthogonalLoop=1;jettySize=auto;html=1;" edge="1" parent="1" source="ut_Y9sSOxCHwD-0WXniP-15" target="ut_Y9sSOxCHwD-0WXniP-24">
          <mxGeometry relative="1" as="geometry" />
        </mxCell>
        <mxCell id="ut_Y9sSOxCHwD-0WXniP-15" value="Input length" style="shape=parallelogram;html=1;strokeWidth=3;perimeter=parallelogramPerimeter;whiteSpace=wrap;rounded=1;arcSize=12;size=0.23;shadow=1;strokeColor=#000000;fontColor=#000000;fillColor=#FFFFFF;fontSize=14;fontStyle=1" vertex="1" parent="1">
          <mxGeometry x="540" y="630" width="230" height="110" as="geometry" />
        </mxCell>
        <mxCell id="ut_Y9sSOxCHwD-0WXniP-16" value="Return result" style="strokeWidth=3;html=1;shape=mxgraph.flowchart.terminator;whiteSpace=wrap;shadow=1;strokeColor=#000000;fontColor=#000000;fillColor=#FFFFFF;fontStyle=1;fontSize=14;" vertex="1" parent="1">
          <mxGeometry x="595" y="920" width="120" height="60" as="geometry" />
        </mxCell>
        <mxCell id="ut_Y9sSOxCHwD-0WXniP-24" value="&lt;div&gt;&lt;span style=&quot;font-size: 14px&quot;&gt;&lt;b&gt;Declare Real result =&lt;/b&gt;&lt;/span&gt;&lt;/div&gt;&lt;div&gt;&lt;span style=&quot;font-size: 14px&quot;&gt;&lt;b&gt;width * length&lt;br&gt;&lt;/b&gt;&lt;/span&gt;&lt;/div&gt;" style="rounded=0;whiteSpace=wrap;html=1;strokeWidth=3;strokeColor=#000000;fontColor=#000000;fillColor=#FFFFFF;" vertex="1" parent="1">
          <mxGeometry x="545.64" y="780" width="218.75" height="100" as="geometry" />
        </mxCell>
        <mxCell id="ut_Y9sSOxCHwD-0WXniP-27" style="edgeStyle=orthogonalEdgeStyle;rounded=0;orthogonalLoop=1;jettySize=auto;html=1;entryX=0.5;entryY=0;entryDx=0;entryDy=0;entryPerimeter=0;" edge="1" parent="1" source="ut_Y9sSOxCHwD-0WXniP-24" target="ut_Y9sSOxCHwD-0WXniP-16">
          <mxGeometry relative="1" as="geometry" />
        </mxCell>
      </root>
    </mxGraphModel>
  </diagram>
</mxfile>
